<svg width="68" height="68" viewBox="0 0 68 68" fill="none" xmlns="http://www.w3.org/2000/svg">
<ellipse cx="34.0511" cy="33.6063" rx="33.5574" ry="33.4339" fill="white"/>
<g clip-path="url(#clip0_1_222)">
<path d="M47.7014 18.8727H21.538C19.3402 18.8751 17.5591 20.6497 17.5566 22.8394V45.5064C17.5591 47.6962 19.3402 49.4707 21.538 49.4732H47.7014C49.8993 49.4707 51.6803 47.6962 51.6828 45.5064V22.8394C51.6803 20.6497 49.8993 18.8751 47.7014 18.8727ZM50.5453 45.5064C50.5434 47.0705 49.2713 48.338 47.7014 48.3398H21.538C19.9682 48.338 18.6961 47.0705 18.6942 45.5064V22.8394C18.6961 21.2753 19.9682 20.0079 21.538 20.006H47.7014C49.2713 20.0079 50.5434 21.2753 50.5453 22.8394V45.5064Z" fill="#DC7000"/>
<path d="M47.7015 23.4061H21.5381C20.5957 23.4061 19.8318 24.1672 19.8318 25.1061V45.5064C19.8318 46.4453 20.5957 47.2065 21.5381 47.2065H47.7015C48.6439 47.2065 49.4078 46.4453 49.4078 45.5064V25.1061C49.4078 24.1672 48.6439 23.4061 47.7015 23.4061ZM34.6198 34.6625L28.4253 31.3395L34.6198 28.0165L40.8143 31.3395L34.6198 34.6625ZM41.445 32.2882V38.933L35.1886 42.2911V35.6463L41.445 32.2882ZM34.051 35.6463V42.2911L27.7946 38.933V32.2882L34.051 35.6463ZM20.9693 25.1061C20.9693 24.7931 21.224 24.5394 21.5381 24.5394H34.051V27.0328L26.9562 30.8409C26.9488 30.8448 26.9403 30.8465 26.9329 30.8511C26.7609 30.954 26.6561 31.1396 26.657 31.3395V36.0894L20.9693 38.9228V25.1061ZM48.2703 45.5064C48.2703 45.8194 48.0156 46.0731 47.7015 46.0731H21.5381C21.224 46.0731 20.9693 45.8194 20.9693 45.5064V40.1899L26.657 37.3565V39.273C26.6571 39.4814 26.772 39.6729 26.9562 39.7717L34.3502 43.7384C34.5185 43.8287 34.7211 43.8287 34.8894 43.7384L42.2834 39.7717C42.4676 39.6729 42.5825 39.4814 42.5826 39.273V37.3565L48.2703 40.1899V45.5064ZM48.2703 38.9228L42.5826 36.0894V31.3395C42.5825 31.1402 42.4773 30.9556 42.3056 30.8533C42.2982 30.8488 42.2897 30.8471 42.2823 30.8431L35.1886 27.0328V24.5394H47.7015C48.0156 24.5394 48.2703 24.7931 48.2703 25.1061V38.9228Z" fill="#DC7000"/>
<path d="M20.9692 22.2728C21.2833 22.2728 21.5379 22.019 21.5379 21.7061C21.5379 21.3931 21.2833 21.1394 20.9692 21.1394C20.655 21.1394 20.4004 21.3931 20.4004 21.7061C20.4004 22.019 20.655 22.2728 20.9692 22.2728Z" fill="#DC7000"/>
<path d="M23.2443 22.2728C23.5584 22.2728 23.8131 22.019 23.8131 21.7061C23.8131 21.3931 23.5584 21.1394 23.2443 21.1394C22.9302 21.1394 22.6755 21.3931 22.6755 21.7061C22.6755 22.019 22.9302 22.2728 23.2443 22.2728Z" fill="#DC7000"/>
<path d="M25.5195 22.2728C25.8336 22.2728 26.0882 22.019 26.0882 21.7061C26.0882 21.3931 25.8336 21.1394 25.5195 21.1394C25.2053 21.1394 24.9507 21.3931 24.9507 21.7061C24.9507 22.019 25.2053 22.2728 25.5195 22.2728Z" fill="#DC7000"/>
<path d="M39.7387 22.2728H47.7015C48.0156 22.2728 48.2702 22.019 48.2702 21.7061C48.2702 21.3931 48.0156 21.1394 47.7015 21.1394H39.7387C39.4246 21.1394 39.1699 21.3931 39.1699 21.7061C39.1699 22.019 39.4246 22.2728 39.7387 22.2728Z" fill="#DC7000"/>
</g>
<defs>
<clipPath id="clip0_1_222">
<rect width="34.1262" height="34.0006" fill="white" transform="translate(17.5566 17.1727)"/>
</clipPath>
</defs>
</svg>
