<svg width="68" height="68" viewBox="0 0 68 68" fill="none" xmlns="http://www.w3.org/2000/svg">
<ellipse cx="34.0464" cy="33.6063" rx="33.5574" ry="33.4339" fill="white"/>
<g clip-path="url(#clip0_1_240)">
<path d="M49.3818 43.8419L48.6987 41.3018C48.6098 40.9712 48.2685 40.7747 47.9367 40.8636C47.6048 40.9522 47.4079 41.292 47.4968 41.6227L47.7959 42.7347L43.4306 40.2537V29.9425C43.4306 29.7206 43.3116 29.5157 43.1185 29.4051L34.0987 24.2384V19.3286L34.903 20.13C35.146 20.372 35.5399 20.372 35.7829 20.13C36.0258 19.8879 36.0258 19.4954 35.7829 19.2533L33.9165 17.3938C33.6733 17.1505 33.275 17.1554 33.0366 17.3938L31.1703 19.2533C30.9273 19.4954 30.9273 19.8879 31.1703 20.13C31.4132 20.372 31.8071 20.372 32.0501 20.13L32.8545 19.3286V24.2395L23.8952 29.406C23.703 29.5168 23.5847 29.7213 23.5847 29.9425V40.1535L19.1579 42.6598L19.4575 41.5457C19.5464 41.2151 19.3494 40.8752 19.0175 40.7866C18.6856 40.6979 18.3445 40.8942 18.2556 41.2249L17.5725 43.7656C17.486 44.0873 17.6794 44.4453 18.0311 44.5296L20.562 45.2053C20.8965 45.2946 21.2357 45.095 21.3239 44.767C21.4129 44.4364 21.2159 44.0966 20.884 44.0079L19.8045 43.7197L24.198 41.2323L33.2001 46.5137C33.3928 46.6268 33.6321 46.6283 33.8266 46.5166L36.1086 45.2058C36.4063 45.0349 36.5085 44.6558 36.3369 44.3593C36.1653 44.0628 35.7849 43.9609 35.4872 44.1319L33.5192 45.2623L25.446 40.5258L33.4374 36.0014L41.5828 40.6307L40.3367 41.3465C40.039 41.5175 39.9368 41.8965 40.1084 42.193C40.2801 42.4897 40.6605 42.5915 40.9581 42.4205L42.8351 41.3424L47.1516 43.7956L46.0705 44.0842C45.7386 44.1728 45.5416 44.5127 45.6306 44.8433C45.7191 45.1723 46.059 45.3708 46.3925 45.2816L48.8859 44.616C49.2419 44.5534 49.4773 44.1969 49.3818 43.8419ZM42.1862 39.5465L34.0986 34.9499V25.6684L42.1862 30.3011V39.5465ZM24.8289 30.2999L32.8544 25.672V34.9054L24.8289 39.4491V30.2999Z" fill="#DC7000"/>
<path d="M38.2046 43.8652C38.5482 43.8652 38.8268 43.5877 38.8268 43.2454C38.8268 42.9031 38.5482 42.6256 38.2046 42.6256C37.8611 42.6256 37.5825 42.9031 37.5825 43.2454C37.5825 43.5877 37.8611 43.8652 38.2046 43.8652Z" fill="#DC7000"/>
</g>
<defs>
<clipPath id="clip0_1_240">
<rect width="31.8511" height="31.7339" fill="white" transform="translate(17.552 16.0394)"/>
</clipPath>
</defs>
</svg>
