<svg width="68" height="68" viewBox="0 0 68 68" fill="none" xmlns="http://www.w3.org/2000/svg">
<ellipse cx="34.0511" cy="33.9396" rx="33.5574" ry="33.4339" fill="white"/>
<g clip-path="url(#clip0_1_166)">
<path d="M20.3057 30.6529C20.4518 30.6538 20.5923 30.5966 20.6961 30.4941L22.8953 28.3029C23.1109 28.0881 23.1109 27.7399 22.8953 27.5251C22.6797 27.3103 22.3302 27.3103 22.1146 27.5251L19.9153 29.7162C19.8112 29.8191 19.7527 29.9591 19.7527 30.1051C19.7527 30.2512 19.8112 30.3912 19.9153 30.4941C20.0191 30.5966 20.1595 30.6538 20.3057 30.6529Z" fill="#DC7000"/>
<path d="M20.3057 33.9396C20.4518 33.9405 20.5923 33.8833 20.696 33.7808L26.1942 28.3029C26.4097 28.0881 26.4097 27.7399 26.1942 27.5251C25.9786 27.3103 25.629 27.3103 25.4134 27.5251L19.9153 33.0029C19.8112 33.1058 19.7527 33.2458 19.7527 33.3919C19.7527 33.5379 19.8112 33.6779 19.9153 33.7808C20.0191 33.8833 20.1595 33.9405 20.3057 33.9396Z" fill="#DC7000"/>
<path d="M48.8959 17.506H34.6008C33.6898 17.506 32.9513 18.2418 32.9513 19.1494V25.175H20.3057C18.7874 25.175 17.5566 26.4013 17.5566 27.914V42.1564C17.5566 43.6691 18.7874 44.8954 20.3057 44.8954H26.3536V47.0865H24.7042C23.7932 47.0865 23.0547 47.8223 23.0547 48.7299C23.0547 49.6375 23.7932 50.3733 24.7042 50.3733H48.8959C49.8068 50.3733 50.5453 49.6375 50.5453 48.7299V19.1494C50.5453 18.2418 49.8068 17.506 48.8959 17.506ZM20.3057 26.2706H40.0989C41.0098 26.2706 41.7483 27.0064 41.7483 27.914V41.0609H18.6563V27.914C18.6563 27.0064 19.3947 26.2706 20.3057 26.2706ZM18.6563 42.1564H41.7483C41.7483 43.0641 41.0098 43.7998 40.0989 43.7998H20.3057C19.3947 43.7998 18.6563 43.0641 18.6563 42.1564ZM27.4532 44.8954H32.9513V47.0865H27.4532V44.8954ZM34.6008 49.2777H24.7042C24.4005 49.2777 24.1544 49.0324 24.1544 48.7299C24.1544 48.4274 24.4005 48.1821 24.7042 48.1821H35.7004C36.004 48.1821 36.2502 48.4274 36.2502 48.7299C36.2502 49.0324 36.004 49.2777 35.7004 49.2777H34.6008ZM49.4457 48.7299C49.4457 49.0324 49.1995 49.2777 48.8959 49.2777H37.2509C37.4291 48.7755 37.3519 48.2183 37.0439 47.783C36.7358 47.3476 36.235 47.088 35.7004 47.0865H34.051V44.8954H40.0989C41.6171 44.8954 42.8479 43.6691 42.8479 42.1564V27.914C42.8479 26.4013 41.6171 25.175 40.0989 25.175H34.051V19.1494C34.051 18.8469 34.2971 18.6016 34.6008 18.6016H48.8959C49.1995 18.6016 49.4457 18.8469 49.4457 19.1494V48.7299Z" fill="#DC7000"/>
<path d="M47.2465 20.245H36.2503C35.643 20.245 35.1506 20.7355 35.1506 21.3406V22.4362C35.1506 23.0412 35.643 23.5317 36.2503 23.5317H47.2465C47.8538 23.5317 48.3461 23.0412 48.3461 22.4362V21.3406C48.3461 20.7355 47.8538 20.245 47.2465 20.245ZM36.2503 22.4362V21.3406H47.2465V22.4362H36.2503Z" fill="#DC7000"/>
<path d="M46.1467 28.4618C47.0577 28.4618 47.7962 27.726 47.7962 26.8184C47.7962 25.9108 47.0577 25.175 46.1467 25.175C45.2358 25.175 44.4973 25.9108 44.4973 26.8184C44.4973 27.726 45.2358 28.4618 46.1467 28.4618ZM46.1467 26.2706C46.4504 26.2706 46.6966 26.5159 46.6966 26.8184C46.6966 27.1209 46.4504 27.3662 46.1467 27.3662C45.8431 27.3662 45.5969 27.1209 45.5969 26.8184C45.5969 26.5159 45.8431 26.2706 46.1467 26.2706Z" fill="#DC7000"/>
<path d="M47.7962 31.2007C47.7962 30.2931 47.0577 29.5574 46.1467 29.5574C45.2358 29.5574 44.4973 30.2931 44.4973 31.2007C44.4973 32.1083 45.2358 32.8441 46.1467 32.8441C47.0577 32.8441 47.7962 32.1083 47.7962 31.2007ZM46.1467 31.7485C45.8431 31.7485 45.5969 31.5033 45.5969 31.2007C45.5969 30.8982 45.8431 30.6529 46.1467 30.6529C46.4504 30.6529 46.6966 30.8982 46.6966 31.2007C46.6966 31.5033 46.4504 31.7485 46.1467 31.7485Z" fill="#DC7000"/>
<path d="M38.9993 45.991C38.6956 45.991 38.4495 46.2362 38.4495 46.5388V47.6343C38.4495 47.9369 38.6956 48.1821 38.9993 48.1821C39.3029 48.1821 39.5491 47.9369 39.5491 47.6343V46.5388C39.5491 46.2362 39.3029 45.991 38.9993 45.991Z" fill="#DC7000"/>
<path d="M41.1985 45.991C40.8948 45.991 40.6487 46.2362 40.6487 46.5388V47.6343C40.6487 47.9369 40.8948 48.1821 41.1985 48.1821C41.5021 48.1821 41.7483 47.9369 41.7483 47.6343V46.5388C41.7483 46.2362 41.5021 45.991 41.1985 45.991Z" fill="#DC7000"/>
<path d="M43.3977 45.991C43.0941 45.991 42.8479 46.2362 42.8479 46.5388V47.6343C42.8479 47.9369 43.0941 48.1821 43.3977 48.1821C43.7014 48.1821 43.9475 47.9369 43.9475 47.6343V46.5388C43.9475 46.2362 43.7014 45.991 43.3977 45.991Z" fill="#DC7000"/>
<path d="M45.5969 45.991C45.2933 45.991 45.0471 46.2362 45.0471 46.5388V47.6343C45.0471 47.9369 45.2933 48.1821 45.5969 48.1821C45.9006 48.1821 46.1467 47.9369 46.1467 47.6343V46.5388C46.1467 46.2362 45.9006 45.991 45.5969 45.991Z" fill="#DC7000"/>
<path d="M47.7961 45.991C47.4925 45.991 47.2463 46.2362 47.2463 46.5388V47.6343C47.2463 47.9369 47.4925 48.1821 47.7961 48.1821C48.0998 48.1821 48.346 47.9369 48.346 47.6343V46.5388C48.346 46.2362 48.0998 45.991 47.7961 45.991Z" fill="#DC7000"/>
</g>
<defs>
<clipPath id="clip0_1_166">
<rect width="32.9886" height="32.8672" fill="white" transform="translate(17.5566 17.506)"/>
</clipPath>
</defs>
</svg>
