<svg width="68" height="68" viewBox="0 0 68 68" fill="none" xmlns="http://www.w3.org/2000/svg">
<ellipse cx="33.7144" cy="33.9397" rx="33.5574" ry="33.4339" fill="white"/>
<g clip-path="url(#clip0_1_189)">
<path d="M22.2592 28.5297H13.8076V30.9203H22.2592C22.9207 30.9203 23.459 31.4566 23.459 32.1157C23.459 32.7748 22.9207 33.311 22.2592 33.311H17.4069C15.4222 33.311 13.8076 34.9197 13.8076 36.897V40.483H16.2071V36.897C16.2071 36.2379 16.7453 35.7017 17.4069 35.7017H22.2592C24.2438 35.7017 25.8585 34.093 25.8585 32.1157C25.8585 30.1383 24.2438 28.5297 22.2592 28.5297Z" fill="#DC7000"/>
<path d="M34.8832 28.5297C32.8986 28.5297 31.2839 30.1383 31.2839 32.1157V36.897C31.2839 37.5561 30.7457 38.0923 30.0842 38.0923H24.6587V40.483H30.0842C32.0688 40.483 33.6834 38.8743 33.6834 36.897V32.1157C33.6834 31.4566 34.2216 30.9203 34.8832 30.9203H40.3087V28.5297H34.8832Z" fill="#DC7000"/>
<path d="M52.3596 35.7015V30.9203C52.3596 29.6021 51.2831 28.5297 49.9601 28.5297C49.5056 28.5297 49.0629 28.6572 48.6796 28.8983L41.0813 33.6796C40.3805 34.1206 39.9622 34.8764 39.9622 35.7017C39.9622 37.0199 41.0386 38.0923 42.3617 38.0923H49.9601V40.483H52.3596V38.0923H54.7591V35.7017L52.3596 35.7015ZM49.9601 35.7014L42.3625 35.7009L49.9601 30.9203V35.7014Z" fill="#DC7000"/>
</g>
<defs>
<clipPath id="clip0_1_189">
<rect width="40.9514" height="40.8007" fill="white" transform="translate(13.8076 14.106)"/>
</clipPath>
</defs>
</svg>
