<svg width="68" height="68" viewBox="0 0 68 68" fill="none" xmlns="http://www.w3.org/2000/svg">
<ellipse cx="34.4014" cy="33.9397" rx="33.5574" ry="33.4339" fill="white"/>
<g clip-path="url(#clip0_1_208)">
<path d="M36.5357 42.5867C34.7948 43.1655 32.8745 43.1653 31.1287 42.5864C30.6395 42.4242 30.1113 42.6878 29.9486 43.1749C29.7859 43.6621 30.0503 44.1886 30.5394 44.3507C31.6025 44.7033 32.7186 44.8795 33.8344 44.8795C34.9502 44.8795 36.0657 44.7031 37.1264 44.3505C37.6152 44.188 37.8793 43.6614 37.7161 43.1743C37.5531 42.6873 37.0246 42.4243 36.5357 42.5867Z" fill="#DC7000"/>
<path d="M44.7027 24.7134C44.3056 21.8753 41.8596 19.6352 38.83 19.6352H37.7642V19.5691C37.7642 19.0556 37.3464 18.6394 36.831 18.6394H30.834C30.3187 18.6394 29.9009 19.0556 29.9009 19.5691V19.6352H28.8351C25.8309 19.6352 23.3816 21.844 22.965 24.7127C21.2158 25.1093 19.906 26.6703 19.906 28.5314V36.4979C19.906 39.0457 21.989 40.0841 22.9351 40.3081C23.3623 46.0437 28.1962 50.3733 33.8325 50.3733C39.5804 50.3733 44.3059 45.929 44.7295 40.3084C47.1821 39.7282 47.7591 37.5113 47.7591 36.498V28.5314C47.7591 26.6713 46.4505 25.1109 44.7027 24.7134ZM37.7642 21.4946H38.83C41.4703 21.4946 42.561 23.6453 42.7877 24.6143H37.7642V21.4946ZM31.7672 20.4988H35.8979V24.6143H31.7672V20.4988ZM28.8351 21.4946H29.9009V24.6143H24.8812C25.4864 22.0882 27.7833 21.4946 28.8351 21.4946ZM33.8325 48.5139C29.2269 48.5139 25.29 45.0376 24.8182 40.4151H29.4198C30.5649 40.4151 31.6853 39.9528 32.4937 39.1467C32.4985 39.142 32.5032 39.1371 32.5079 39.1322C32.859 38.7901 33.3406 38.5943 33.8325 38.5943C34.3246 38.5943 34.8062 38.7902 35.1572 39.1323C35.1619 39.1371 35.1666 39.142 35.1715 39.1467C35.9799 39.9528 37.1003 40.4151 38.2454 40.4151H42.8466C42.378 44.9583 38.5142 48.5139 33.8325 48.5139ZM45.8928 36.498C45.8928 37.6486 44.9516 38.5557 43.8275 38.5557H38.2454C37.5989 38.5557 36.9665 38.2978 36.5068 37.8474C36.5017 37.8421 36.4966 37.8369 36.4915 37.8317C35.7919 37.1347 34.8228 36.7349 33.8326 36.7349C32.8425 36.7349 31.8734 37.1347 31.1738 37.8317C31.1686 37.8368 31.1634 37.842 31.1584 37.8473C30.6986 38.2978 30.0662 38.5557 29.4198 38.5557H23.8376C22.7171 38.5557 21.7722 37.6525 21.7722 36.498V28.5314C21.7722 27.3968 22.6988 26.4738 23.8376 26.4738H43.8274C44.9663 26.4738 45.8928 27.3969 45.8928 28.5314V36.498H45.8928Z" fill="#DC7000"/>
</g>
<defs>
<clipPath id="clip0_1_208">
<rect width="31.8511" height="31.7339" fill="white" transform="translate(17.907 18.6394)"/>
</clipPath>
</defs>
</svg>
