<svg width="68" height="68" viewBox="0 0 68 68" fill="none" xmlns="http://www.w3.org/2000/svg">
<ellipse cx="34.0953" cy="33.9397" rx="33.5574" ry="33.4339" fill="white"/>
<g clip-path="url(#clip0_1_147)">
<path d="M40.5425 18.6394H27.648C26.4051 18.6394 25.3931 19.6477 25.3931 20.886V46.9928C25.3931 48.2316 26.4051 49.2399 27.648 49.2399H40.542C41.7854 49.2399 42.7974 48.2316 42.7974 46.9933V20.886C42.7974 19.6477 41.7854 18.6394 40.5425 18.6394ZM26.4169 22.7195H41.7736V42.0998H26.4169V22.7195ZM27.648 19.6594H40.542C41.2213 19.6594 41.7736 20.2097 41.7736 20.886V21.6994H26.4169V20.886C26.4169 20.2097 26.9692 19.6594 27.648 19.6594ZM40.5425 48.2199H27.648C26.9692 48.2199 26.4169 47.6696 26.4169 46.9933V43.1198H41.7736V46.9933C41.7736 47.6696 41.2213 48.2199 40.5425 48.2199Z" fill="#DC7000"/>
<path d="M34.0952 43.6298C32.9659 43.6298 32.0476 44.5448 32.0476 45.6699C32.0476 46.7949 32.9659 47.7099 34.0952 47.7099C35.2244 47.7099 36.1428 46.7949 36.1428 45.6699C36.1428 44.5448 35.2244 43.6298 34.0952 43.6298ZM34.0952 46.6899C33.5306 46.6899 33.0714 46.2324 33.0714 45.6699C33.0714 45.1073 33.5306 44.6498 34.0952 44.6498C34.6598 44.6498 35.119 45.1073 35.119 45.6699C35.119 46.2324 34.6598 46.6899 34.0952 46.6899Z" fill="#DC7000"/>
<path d="M32.0478 21.1894H34.0954C34.3784 21.1894 34.6072 20.9615 34.6072 20.6794C34.6072 20.3974 34.3784 20.1694 34.0954 20.1694H32.0478C31.7647 20.1694 31.5359 20.3974 31.5359 20.6794C31.5359 20.9615 31.7647 21.1894 32.0478 21.1894Z" fill="#DC7000"/>
<path d="M35.631 21.1894H36.1429C36.426 21.1894 36.6548 20.9615 36.6548 20.6794C36.6548 20.3974 36.426 20.1694 36.1429 20.1694H35.631C35.348 20.1694 35.1191 20.3974 35.1191 20.6794C35.1191 20.9615 35.348 21.1894 35.631 21.1894Z" fill="#DC7000"/>
<path d="M47.7177 20.9696C47.5175 20.7702 47.194 20.7702 46.9939 20.9696C46.7937 21.169 46.7937 21.4914 46.9939 21.6908C48.9063 23.5962 48.9063 26.6965 46.9939 28.6024C46.7937 28.8018 46.7937 29.1241 46.9939 29.3236C47.0937 29.423 47.2247 29.473 47.3558 29.473C47.4868 29.473 47.6179 29.423 47.7177 29.3236C50.0294 27.0209 50.0294 23.2728 47.7177 20.9696Z" fill="#DC7000"/>
<path d="M45.5622 22.1304C45.362 21.931 45.0385 21.931 44.8383 22.1304C44.6382 22.3298 44.6382 22.6521 44.8383 22.8515C45.4716 23.4824 45.8202 24.3229 45.8202 25.2175C45.8202 26.112 45.4716 26.952 44.8383 27.5829C44.6382 27.7823 44.6382 28.1046 44.8383 28.3041C44.9382 28.4035 45.0692 28.4535 45.2003 28.4535C45.3313 28.4535 45.4623 28.4035 45.5622 28.3041C46.3889 27.4809 46.8439 26.3844 46.8439 25.2175C46.8439 24.0506 46.3894 22.9535 45.5622 22.1304Z" fill="#DC7000"/>
<path d="M21.1966 21.6908C21.3968 21.4914 21.3968 21.169 21.1966 20.9696C20.9965 20.7702 20.6729 20.7702 20.4728 20.9696C18.1611 23.2728 18.1611 27.0204 20.4728 29.3236C20.5726 29.423 20.7037 29.473 20.8347 29.473C20.9657 29.473 21.0968 29.423 21.1966 29.3236C21.3968 29.1241 21.3968 28.8018 21.1966 28.6024C19.2837 26.697 19.2837 23.5967 21.1966 21.6908Z" fill="#DC7000"/>
<path d="M23.3523 21.9896C23.1521 21.7902 22.8286 21.7902 22.6285 21.9896C21.8018 22.8128 21.3467 23.9093 21.3467 25.0762C21.3467 26.2431 21.8018 27.3396 22.6285 28.1633C22.7283 28.2627 22.8593 28.3127 22.9904 28.3127C23.1214 28.3127 23.2525 28.2627 23.3523 28.1633C23.5524 27.9639 23.5524 27.6416 23.3523 27.4421C22.7191 26.8113 22.3705 25.9708 22.3705 25.0762C22.3705 24.1817 22.7186 23.3417 23.3523 22.7108C23.5519 22.5119 23.5519 22.189 23.3523 21.9896Z" fill="#DC7000"/>
</g>
<defs>
<clipPath id="clip0_1_147">
<rect width="30.7136" height="30.6005" fill="white" transform="translate(18.7385 18.6394)"/>
</clipPath>
</defs>
</svg>
